<?xml version="1.0" standalone="no"?>
<!DOCTYPE svg PUBLIC "-//W3C//DTD SVG 20010904//EN"
 "http://www.w3.org/TR/2001/REC-SVG-20010904/DTD/svg10.dtd">
<svg version="1.0" xmlns="http://www.w3.org/2000/svg"
 width="301.000000pt" height="167.000000pt" viewBox="0 0 301.000000 167.000000"
 preserveAspectRatio="xMidYMid meet">

<g transform="translate(0.000000,167.000000) scale(0.100000,-0.100000)"
fill="#000000" stroke="none">
<path d="M1390 1474 c-14 -2 -52 -9 -85 -15 -92 -16 -181 -47 -280 -98 -70
-36 -109 -65 -175 -131 -126 -125 -180 -243 -180 -390 0 -105 45 -237 106
-309 l23 -28 -45 -137 c-67 -199 -56 -209 118 -107 66 39 124 71 127 71 4 0
32 -12 62 -26 224 -109 543 -127 783 -44 299 103 495 332 496 580 0 147 -54
265 -180 390 -116 116 -250 186 -435 226 -69 15 -286 27 -335 18z m209 -74
c230 -24 423 -113 545 -252 246 -279 109 -652 -296 -808 -117 -45 -240 -63
-388 -57 -147 7 -249 31 -367 88 -45 21 -89 39 -97 39 -8 0 -49 -21 -91 -46
-42 -25 -79 -44 -82 -40 -3 3 9 46 26 97 30 85 31 93 16 113 -111 151 -142
260 -111 397 54 244 314 433 643 468 43 5 83 9 89 10 7 0 57 -4 113 -9z"/>
<path d="M1143 878 c-30 -15 -46 -58 -34 -91 12 -30 39 -47 75 -47 63 0 90 89
40 129 -29 23 -48 25 -81 9z"/>
<path d="M1455 865 c-30 -30 -32 -64 -4 -99 41 -53 129 -18 129 51 0 32 -42
73 -75 73 -14 0 -37 -11 -50 -25z"/>
<path d="M1786 869 c-50 -40 -23 -129 40 -129 82 0 111 105 38 139 -35 16 -48
14 -78 -10z"/>
</g>
</svg>
